<svg xmlns="http://www.w3.org/2000/svg" viewBox="0 0 100 100">
  <defs>
    <linearGradient id="g" x1="0%" y1="0%" x2="100%" y2="100%">
      <stop offset="0%" stop-color="#8b5cf6"/>
      <stop offset="100%" stop-color="#4338ca"/>
    </linearGradient>
  </defs>
  <rect width="100" height="100" rx="22" fill="url(#g)"/>
  <rect x="22" y="26" width="56" height="52" rx="5" fill="rgba(255,255,255,0.15)" stroke="white" stroke-width="2.5"/>
  <rect x="36" y="18" width="28" height="14" rx="5" fill="white"/>
  <circle cx="50" cy="25" r="4" fill="#4338ca"/>
  <circle cx="30" cy="44" r="5" fill="none" stroke="rgba(255,255,255,0.7)" stroke-width="2"/>
  <polyline points="27,44 30,48 35,40" fill="none" stroke="white" stroke-width="2.5" stroke-linecap="round" stroke-linejoin="round"/>
  <line x1="41" y1="44" x2="70" y2="44" stroke="rgba(255,255,255,0.55)" stroke-width="2.5" stroke-linecap="round"/>
  <circle cx="30" cy="58" r="5" fill="none" stroke="rgba(255,255,255,0.7)" stroke-width="2"/>
  <polyline points="27,58 30,62 35,54" fill="none" stroke="white" stroke-width="2.5" stroke-linecap="round" stroke-linejoin="round"/>
  <line x1="41" y1="58" x2="70" y2="58" stroke="rgba(255,255,255,0.55)" stroke-width="2.5" stroke-linecap="round"/>
  <line x1="41" y1="70" x2="58" y2="70" stroke="rgba(255,255,255,0.3)" stroke-width="2.5" stroke-linecap="round"/>
  <polygon points="76,18 79,25 86,28 79,31 76,38 73,31 66,28 73,25" fill="white"/>
</svg>
